<svg width="16" height="16" viewBox="0 0 16 16" fill="none" xmlns="http://www.w3.org/2000/svg">
<rect width="16" height="16" fill="white"/>
<path d="M5.66667 9.5C5.66667 10.78 6.72 11.8333 8 11.8333C9.28 11.8333 10.3333 10.78 10.3333 9.5" stroke="#282A2E" stroke-width="1.3" stroke-miterlimit="10" stroke-linecap="round" stroke-linejoin="round"/>
<path d="M5.87333 1.33333L3.46 3.75333" stroke="#282A2E" stroke-width="1.3" stroke-miterlimit="10" stroke-linecap="round" stroke-linejoin="round"/>
<path d="M10.1267 1.33333L12.54 3.75333" stroke="#282A2E" stroke-width="1.3" stroke-miterlimit="10" stroke-linecap="round" stroke-linejoin="round"/>
<path d="M1.33333 5.23333C1.33333 4 1.99333 3.9 2.81333 3.9H13.1867C14.0067 3.9 14.6667 4 14.6667 5.23333C14.6667 6.66667 14.0067 6.56667 13.1867 6.56667H2.81333C1.99333 6.56667 1.33333 6.66667 1.33333 5.23333Z" stroke="#282A2E" stroke-width="1.3"/>
<path d="M2.33333 6.66667L3.27333 12.4267C3.48667 13.72 4 14.6667 5.90667 14.6667H9.92667C12 14.6667 12.3067 13.76 12.5467 12.5067L13.6667 6.66667" stroke="#282A2E" stroke-width="1.3" stroke-linecap="round"/>
</svg>
