<svg width="22" height="22" viewBox="0 0 22 22" fill="none" xmlns="http://www.w3.org/2000/svg">
<path d="M5.22461 2.3374H16.7746C17.7371 2.3374 18.5246 3.1249 18.5246 4.0874V6.0124C18.5246 6.7124 18.0871 7.5874 17.6496 8.0249L13.8871 11.3499C13.3621 11.7874 13.0121 12.6624 13.0121 13.3624V17.1249C13.0121 17.6499 12.6621 18.3499 12.2246 18.6124L10.9996 19.3999C9.86211 20.0999 8.28711 19.3124 8.28711 17.9124V13.2749C8.28711 12.6624 7.93711 11.8749 7.58711 11.4374L4.26211 7.9374C3.82461 7.4999 3.47461 6.7124 3.47461 6.1874V4.1749C3.47461 3.1249 4.26211 2.3374 5.22461 2.3374Z" stroke="#252626" stroke-width="1.5" stroke-miterlimit="10" stroke-linecap="round" stroke-linejoin="round"/>
<path d="M10.0638 2.3375L5.75 9.25" stroke="#252626" stroke-width="1.5" stroke-miterlimit="10" stroke-linecap="round" stroke-linejoin="round"/>
</svg>
