<svg width="26" height="26" viewBox="0 0 26 26" fill="none" xmlns="http://www.w3.org/2000/svg">
<path d="M13 26L13.3095 14.3561L18.6405 24.7126L13.8673 14.0875L23.1638 21.1054L14.2532 13.6035L25.6741 15.8928L14.391 13L25.6741 10.1072L14.2532 12.3965L23.1638 4.89463L13.8673 11.9125L18.6405 1.28741L13.3095 11.6439L13 0L12.6905 11.6439L7.35951 1.28741L12.1327 11.9125L2.83619 4.89463L11.7468 12.3965L0.325937 10.1072L11.609 13L0.325937 15.8928L11.7468 13.6035L2.83619 21.1054L12.1327 14.0875L7.35951 24.7126L12.6905 14.3561L13 26Z" fill="black"/>
</svg>
