<svg width="21" height="21" viewBox="0 0 21 21" fill="none" xmlns="http://www.w3.org/2000/svg">
<path d="M4.375 14.4375V6.5625C4.375 6.02 4.3925 5.53875 4.45375 5.11C4.7075 2.80875 5.7925 2.1875 8.75 2.1875H12.25C15.2075 2.1875 16.2925 2.80875 16.5462 5.11C16.6075 5.53875 16.625 6.02 16.625 6.5625V14.4375C16.625 14.98 16.6075 15.4612 16.5462 15.89C16.2925 18.1912 15.2075 18.8125 12.25 18.8125H8.75C5.7925 18.8125 4.7075 18.1912 4.45375 15.89C4.3925 15.4612 4.375 14.98 4.375 14.4375Z" stroke="#252626" stroke-opacity="0.4" stroke-width="1.5" stroke-linecap="round" stroke-linejoin="round"/>
<path d="M1.75 17.0625V3.9375" stroke="#252626" stroke-opacity="0.4" stroke-width="1.5" stroke-linecap="round" stroke-linejoin="round"/>
<path d="M19.25 16.625V3.5" stroke="#252626" stroke-opacity="0.4" stroke-width="1.5" stroke-linecap="round" stroke-linejoin="round"/>
</svg>
