<svg width="21" height="21" viewBox="0 0 21 21" fill="none" xmlns="http://www.w3.org/2000/svg">
<path d="M9.1875 17.4125V3.5875C9.1875 2.275 8.6275 1.75 7.23625 1.75H3.70125C2.31 1.75 1.75 2.275 1.75 3.5875V17.4125C1.75 18.725 2.31 19.25 3.70125 19.25H7.23625C8.6275 19.25 9.1875 18.725 9.1875 17.4125Z" stroke="#252626" stroke-opacity="0.4" stroke-width="1.5" stroke-linecap="round" stroke-linejoin="round"/>
<path d="M19.25 17.4125V3.5875C19.25 2.275 18.69 1.75 17.2988 1.75H13.7637C12.3725 1.75 11.8125 2.275 11.8125 3.5875V17.4125C11.8125 18.725 12.3725 19.25 13.7637 19.25H17.2988C18.69 19.25 19.25 18.725 19.25 17.4125Z" stroke="#252626" stroke-opacity="0.4" stroke-width="1.5" stroke-linecap="round" stroke-linejoin="round"/>
</svg>
